<svg width="187" height="24" viewBox="0 0 187 24" fill="none" xmlns="http://www.w3.org/2000/svg">
<path d="M19.1204 22.272L18.0004 22.464C17.7444 22.5067 17.4777 22.5067 17.2004 22.464C16.923 22.4213 16.635 22.4 16.3364 22.4C16.2724 22.4 16.1764 22.4 16.0484 22.4C15.9204 22.4 15.771 22.4 15.6004 22.4C15.451 22.4 15.3017 22.4107 15.1524 22.432C15.003 22.432 14.875 22.432 14.7684 22.432L14.0644 21.952C14.1284 21.5253 14.107 21.216 14.0004 21.024C13.915 20.832 13.851 20.6507 13.8084 20.48C13.7657 20.352 13.6804 20.1493 13.5524 19.872C13.4244 19.5947 13.307 19.2747 13.2004 18.912C13.2004 18.848 13.0937 18.656 12.8804 18.336C12.667 18.016 12.4964 17.728 12.3684 17.472L11.9844 17.632C11.8777 17.632 11.7604 17.664 11.6324 17.728C11.5044 17.792 11.1844 17.824 10.6724 17.824C10.6084 17.696 10.5017 17.6107 10.3524 17.568C10.203 17.504 10.0324 17.4933 9.84038 17.536C9.66971 17.5573 9.48838 17.6213 9.29638 17.728C9.12571 17.8347 8.97638 17.9627 8.84838 18.112L7.53638 18.304C7.45104 18.112 7.35504 17.9627 7.24838 17.856C7.16304 17.728 7.06704 17.6107 6.96038 17.504C6.87504 17.3973 6.80038 17.28 6.73638 17.152C6.67238 17.024 6.64038 16.8533 6.64038 16.64C7.06704 16.5333 7.31238 16.3947 7.37638 16.224C7.46171 16.0533 7.52571 15.9787 7.56838 16C7.69638 16.064 7.81371 16.096 7.92038 16.096C7.77104 16.096 7.72838 16.0747 7.79238 16.032C7.85638 15.9893 8.14438 15.8827 8.65638 15.712L10.9924 15.424L11.4724 15.776C11.8137 15.8613 12.0697 15.8827 12.2404 15.84C12.411 15.7973 12.5284 15.7227 12.5924 15.616C12.6564 15.488 12.6884 15.3493 12.6884 15.2C12.7097 15.0507 12.731 14.9227 12.7524 14.816C12.795 14.5813 12.7417 14.3893 12.5924 14.24C12.4644 14.0693 12.283 13.92 12.0484 13.792C12.0057 13.5573 11.9204 13.2907 11.7924 12.992C11.6857 12.672 11.547 12.2987 11.3764 11.872C11.227 11.4667 11.0884 11.04 10.9604 10.592C10.8537 10.1227 10.7577 9.696 10.6724 9.312C10.587 8.928 10.523 8.608 10.4804 8.352C10.4377 8.096 10.4057 7.94667 10.3844 7.904C10.0857 7.712 9.84038 7.70133 9.64838 7.872C9.45638 8.02133 9.29638 8.24533 9.16838 8.544C9.06171 8.84267 8.98704 9.16267 8.94438 9.504C8.92304 9.824 8.92304 10.048 8.94438 10.176C8.92304 10.2187 8.86971 10.2933 8.78438 10.4C8.69904 10.4853 8.60304 10.5813 8.49638 10.688C8.38971 10.7947 8.29371 10.9013 8.20837 11.008C8.12304 11.0933 8.06971 11.1573 8.04838 11.2C7.96304 11.3493 7.94171 11.5093 7.98438 11.68C8.02704 11.8507 7.99504 12 7.88838 12.128C7.46171 12.896 6.96038 13.504 6.38438 13.952C6.23504 14.08 6.11771 14.2613 6.03238 14.496C5.94704 14.7307 5.89371 14.976 5.87238 15.232C5.85104 15.488 5.87238 15.744 5.93638 16C6.00038 16.2347 6.11771 16.4267 6.28838 16.576C6.07504 16.704 5.90438 16.8427 5.77638 16.992C5.66971 17.12 5.57371 17.2693 5.48838 17.44C5.42438 17.5893 5.36038 17.76 5.29638 17.952C5.23238 18.1227 5.15771 18.3147 5.07238 18.528C4.70971 19.488 4.52838 19.9893 4.52838 20.032L4.08038 20.96L3.66438 22.656C3.68571 22.976 3.56838 23.168 3.31238 23.232C3.07771 23.296 2.69371 23.328 2.16038 23.328C1.64838 23.456 1.20038 23.52 0.816375 23.52C0.432375 23.4987 0.304375 23.296 0.432375 22.912C0.987042 21.5893 1.39238 20.608 1.64838 19.968C1.92571 19.3067 2.06438 18.8053 2.06438 18.464C2.06438 18.3573 2.10704 18.272 2.19238 18.208C2.29904 18.1227 2.38438 18.0587 2.44838 18.016C2.46971 17.9733 2.54438 17.7493 2.67238 17.344C2.82171 16.9387 2.98171 16.4907 3.15238 16C3.32304 15.488 3.48304 15.008 3.63238 14.56C3.80304 14.0907 3.93104 13.7707 4.01638 13.6C4.20838 13.1947 4.43238 12.736 4.68837 12.224C4.96571 11.712 5.28571 11.2213 5.64838 10.752C5.84038 10.496 6.00038 10.144 6.12838 9.696C6.27771 9.248 6.41638 8.75733 6.54438 8.224C6.67238 7.69067 6.81104 7.14667 6.96038 6.592C7.10971 6.03733 7.30171 5.52533 7.53638 5.056C7.66438 5.01333 8.03771 4.544 8.65638 3.648C8.69904 3.60533 8.73104 3.56267 8.75238 3.52C8.79504 3.456 8.83771 3.40267 8.88038 3.36L12.9764 3.104C13.0617 3.21067 13.1577 3.33867 13.2644 3.488C13.371 3.63733 13.4884 3.79733 13.6164 3.968C14.0217 4.48 14.267 4.88533 14.3524 5.184C14.4377 5.48267 14.491 5.68533 14.5124 5.792C14.4697 5.856 14.6937 6.58133 15.1844 7.968C15.3124 8.30933 15.419 8.69333 15.5044 9.12C15.5897 9.54667 15.6537 9.952 15.6964 10.336C15.739 10.6987 15.7604 11.0187 15.7604 11.296C15.7604 11.552 15.7497 11.6907 15.7284 11.712C15.6857 11.7333 16.027 12 16.7524 12.512C16.923 12.64 17.019 12.7573 17.0404 12.864C17.083 12.9707 17.083 13.0667 17.0404 13.152C17.019 13.2373 16.9764 13.312 16.9124 13.376C16.8484 13.44 16.8164 13.4827 16.8164 13.504L17.6804 14.656C17.6804 14.656 17.9257 15.584 18.4164 17.44C18.6937 18.336 18.8964 19.104 19.0244 19.744C19.1524 20.3627 19.2164 20.8427 19.2164 21.184C19.2164 21.2267 19.227 21.2587 19.2484 21.28C19.2484 21.2587 19.2697 21.312 19.3124 21.44L19.1204 22.272ZM35.8734 9.664V10.848L35.6814 11.04L32.7694 10.432L30.2094 11.616L29.5054 13.248C28.8654 14.528 28.396 15.6907 28.0974 16.736C27.7987 17.76 27.8307 18.6347 28.1934 19.36L29.1214 20.96L32.4814 20.384L33.8894 19.904H36.5134L36.8334 21.024L33.2494 22.048L28.1934 23.104L26.6574 22.112H24.0334L23.0414 21.024C22.7854 19.808 22.8174 18.5813 23.1374 17.344C23.4574 16.0853 23.9374 14.8053 24.5774 13.504L28.1614 10.912L29.0574 9.376L30.0814 8.992L30.7854 8.416L35.6494 9.024L35.8734 9.664ZM62.0454 22.144L60.2534 22.688L57.9174 22.976L57.6934 22.432L58.1734 20.576L58.7494 18.88L58.9094 12.832L58.1414 11.392H57.2134L55.7414 12.48H55.3894C55.1547 12.48 55.0054 12.6187 54.9414 12.896C54.8987 13.152 54.8987 13.4507 54.9414 13.792C54.7494 13.856 54.6107 14.176 54.5254 14.752L54.3974 15.648L54.3654 17.6L53.7894 20.16L54.0134 21.44L53.7254 22.592L53.4374 22.88L49.8854 23.136L49.1494 22.464L49.3734 21.216L49.8214 17.92C49.9067 17.536 49.9814 17.0987 50.0454 16.608C50.1307 16.1173 50.1947 15.6267 50.2374 15.136C50.28 14.624 50.3014 14.144 50.3014 13.696C50.3227 13.2267 50.3227 12.8427 50.3014 12.544C50.2587 12.3093 50.2587 12.1173 50.3014 11.968C50.344 11.7973 50.3547 11.6693 50.3334 11.584L49.7254 11.008L47.7414 11.328L47.1014 10.784C46.5894 10.4853 46.3227 10.6667 46.3014 11.328C46.1734 11.52 46.056 11.68 45.9494 11.808C45.864 11.9147 45.8107 12.0853 45.7894 12.32C45.6827 12.3627 45.5974 12.416 45.5334 12.48C45.448 12.5653 45.3627 12.6933 45.2774 12.864C45.192 13.0347 45.128 13.28 45.0854 13.6C45 14.2187 44.9574 14.7413 44.9574 15.168C44.9574 15.5947 45.0107 15.8933 45.1174 16.064V16.64L44.5734 17.92L44.4134 20.192L44.1254 22.4L43.8694 22.688L39.9974 23.008L39.3574 22.432L39.5494 21.216L39.7414 19.552L39.8694 17.12C39.8694 16.7147 39.9227 16.3307 40.0294 15.968C40.136 15.6053 40.232 15.2 40.3174 14.752L40.6374 12.224C40.7867 12.0747 40.9467 11.808 41.1174 11.424C41.3094 11.04 41.4054 10.6667 41.4054 10.304C41.4054 10.1973 41.384 10.1227 41.3414 10.08C41.32 10.016 41.288 9.94133 41.2454 9.856L41.7254 9.216C41.768 9.216 41.864 9.22667 42.0134 9.248C42.1627 9.248 42.3334 9.248 42.5254 9.248C42.7387 9.22667 42.952 9.216 43.1654 9.216C43.3787 9.19467 43.5814 9.16267 43.7734 9.12C44.5414 9.01333 45.0214 8.85333 45.2134 8.64L46.4294 8.576L46.3014 9.792C46.4934 9.984 46.696 10.1013 46.9094 10.144C47.144 10.1653 47.3787 10.1333 47.6134 10.048C47.848 9.94133 48.072 9.792 48.2854 9.6C48.4987 9.38667 48.68 9.14133 48.8294 8.864L50.6534 8.896C50.888 8.87467 51.112 8.864 51.3254 8.864C51.56 8.84267 51.784 8.832 51.9974 8.832C52.3387 8.832 52.6587 8.864 52.9574 8.928C53.256 8.97067 53.4267 9.04533 53.4694 9.152C53.5547 9.536 53.736 9.68533 54.0134 9.6C54.056 9.57867 54.1307 9.65333 54.2374 9.824C54.3654 9.97333 54.5574 10.0693 54.8134 10.112C54.9414 10.1547 55.0267 10.2293 55.0694 10.336C55.1334 10.4213 55.176 10.5173 55.1974 10.624C55.2187 10.7307 55.24 10.8267 55.2614 10.912C55.2827 10.976 55.3254 11.008 55.3894 11.008L57.2454 9.536L60.2214 9.056L62.9414 11.232L63.0054 11.68C63.0054 11.808 62.9947 11.936 62.9734 12.064C62.9734 12.1707 62.9414 12.256 62.8774 12.32V15.2L62.9094 18.272L62.3334 21.824L62.0454 22.144ZM79.6486 15.68C79.1793 15.616 78.7633 15.7013 78.4006 15.936C78.2726 16 78.1446 16.064 78.0166 16.128C77.8886 16.1707 77.7606 16.2133 77.6326 16.256C77.5686 16.2773 77.5046 16.2987 77.4406 16.32C77.3766 16.3413 77.3233 16.3627 77.2806 16.384L72.8326 17.728C71.5953 17.4507 71.158 17.6533 71.5206 18.336C71.5846 18.4853 71.67 18.7093 71.7766 19.008C71.8833 19.3067 71.9686 19.52 72.0326 19.648C72.31 19.7547 72.598 19.9253 72.8966 20.16C73.1953 20.3733 73.4726 20.5013 73.7286 20.544L74.3046 20.48C74.454 20.48 74.6566 20.4693 74.9126 20.448C75.19 20.4267 75.4566 20.3947 75.7126 20.352C75.99 20.288 76.2353 20.2133 76.4486 20.128C76.6833 20.0427 76.8433 19.936 76.9286 19.808C76.9926 19.7013 77.0886 19.6267 77.2166 19.584C77.3446 19.52 77.4726 19.4667 77.6006 19.424C77.686 19.4027 77.7606 19.392 77.8246 19.392C77.91 19.3707 78.006 19.3493 78.1126 19.328L78.4646 20.576L78.0806 21.312C78.0593 21.3547 77.9846 21.408 77.8566 21.472C77.75 21.5147 77.622 21.5787 77.4726 21.664C77.3233 21.7493 77.174 21.8347 77.0246 21.92C76.8966 21.984 76.8006 22.048 76.7366 22.112C76.694 22.1547 76.5766 22.176 76.3846 22.176C76.214 22.176 76.0113 22.176 75.7766 22.176C75.5633 22.176 75.3393 22.1867 75.1046 22.208C74.87 22.2293 74.6886 22.272 74.5606 22.336C74.262 22.4853 74.0273 22.5813 73.8566 22.624C73.7073 22.6667 73.5793 22.6987 73.4726 22.72C73.366 22.7627 73.2913 22.752 73.2486 22.688C73.206 22.6667 73.1313 22.656 73.0246 22.656C72.9606 22.656 72.8753 22.656 72.7686 22.656C72.662 22.656 72.5553 22.6453 72.4486 22.624C72.1713 22.6027 71.9473 22.592 71.7766 22.592C71.606 22.5707 71.4993 22.56 71.4566 22.56L68.3846 21.056C68.3206 20.416 68.022 20.096 67.4886 20.096C67.382 20.096 67.254 20.0107 67.1046 19.84C66.9553 19.648 66.8273 19.4453 66.7206 19.232C66.6353 19.1253 66.5606 19.008 66.4966 18.88C66.4326 18.7307 66.3686 18.5707 66.3046 18.4L66.0166 14.752L66.3046 12.608C66.326 12.5227 66.39 12.416 66.4966 12.288C66.6246 12.0747 66.7846 11.7547 66.9766 11.328C67.062 11.136 67.2326 10.9547 67.4886 10.784C67.7446 10.6133 68.0113 10.464 68.2886 10.336C68.5873 10.1867 68.8646 10.0587 69.1206 9.952C69.398 9.824 69.6006 9.71733 69.7286 9.632C69.9846 9.67467 70.358 9.39733 70.8486 8.8C70.9766 8.65067 71.1366 8.53333 71.3286 8.448C71.5206 8.34133 71.7126 8.256 71.9046 8.192C72.0113 8.14933 72.1286 8.11733 72.2566 8.096C72.3846 8.07467 72.502 8.05333 72.6086 8.032L76.3526 8.512C76.566 8.55467 76.79 8.61867 77.0246 8.704C77.1953 8.78933 77.366 8.896 77.5366 9.024C77.7073 9.152 77.846 9.30133 77.9526 9.472C78.102 9.83467 78.3153 10.1333 78.5926 10.368C78.87 10.5813 79.094 10.7307 79.2646 10.816L80.4486 12.928L80.1926 15.008L79.6486 15.68ZM74.9126 14.592L75.1686 14.4C75.2326 14.3573 75.2966 14.3147 75.3606 14.272C75.4246 14.208 75.478 14.1653 75.5206 14.144C75.67 14.1013 75.8406 14.016 76.0326 13.888C76.2246 13.76 76.2993 13.6 76.2566 13.408C76.2566 13.0453 76.0646 12.64 75.6806 12.192C75.2966 11.744 74.7953 11.424 74.1766 11.232C73.878 11.1253 73.59 11.072 73.3126 11.072C73.0353 11.072 72.7686 11.0933 72.5126 11.136C72.278 11.1573 72.054 11.1893 71.8406 11.232C71.6486 11.2747 71.4886 11.296 71.3606 11.296C70.87 11.1893 70.5926 11.4133 70.5286 11.968C70.2086 12.4587 70.0486 13.0027 70.0486 13.6C70.07 14.176 70.134 14.7307 70.2406 15.264C70.2406 15.5627 70.294 15.808 70.4006 16C70.5286 16.192 70.678 16.3093 70.8486 16.352C71.0193 16.3947 71.19 16.3627 71.3606 16.256C71.5526 16.128 71.7126 15.904 71.8406 15.584L74.9126 14.592ZM94.2994 18.656L92.8594 17.792L92.3154 16.608L90.2354 14.464L90.0114 13.984L88.8274 12.448L88.6354 11.872L88.5714 12.096C88.55 12.1813 88.5394 12.3733 88.5394 12.672C88.5607 12.9707 88.5074 13.184 88.3794 13.312C88.3154 13.3973 88.2407 13.568 88.1554 13.824C88.07 14.0587 88.0167 14.2187 87.9954 14.304L87.8994 15.424C87.9207 15.4667 87.942 15.4987 87.9634 15.52C88.006 15.5413 88.038 15.5947 88.0594 15.68C88.0807 15.7653 88.0914 15.904 88.0914 16.096C88.0914 16.2667 88.0594 16.5227 87.9954 16.864C87.8674 17.5253 87.814 18.0373 87.8354 18.4C87.878 18.7413 87.8994 18.9333 87.8994 18.976C87.8994 19.0613 87.91 19.232 87.9314 19.488C87.974 19.7227 87.9527 20.0533 87.8674 20.48C87.7607 21.2907 87.7394 21.9413 87.8034 22.432L87.4514 22.624C87.366 22.6027 87.238 22.592 87.0674 22.592C86.8967 22.592 86.7047 22.6027 86.4914 22.624C86.2994 22.624 86.0967 22.6347 85.8834 22.656C85.67 22.656 85.4887 22.656 85.3394 22.656H84.9234L83.5794 22.976L82.7474 22.528C82.7474 22.1867 82.79 21.8027 82.8754 21.376C82.9394 20.9493 82.9927 20.576 83.0354 20.256C83.078 19.936 83.0994 19.6907 83.0994 19.52C83.0994 19.4773 83.078 19.3813 83.0354 19.232C82.9927 19.0613 82.9607 18.944 82.9394 18.88L83.1634 14.048C83.2274 14.048 83.27 13.9733 83.2914 13.824C83.3127 13.6747 83.3234 13.5147 83.3234 13.344C83.3234 13.1733 83.3127 13.0133 83.2914 12.864C83.27 12.6933 83.2487 12.5867 83.2274 12.544C83.206 12.5227 83.2167 12.4373 83.2594 12.288C83.3234 12.1387 83.398 11.9787 83.4834 11.808L83.7074 11.328C83.75 11.2427 83.782 11.1893 83.8034 11.168C83.846 11.1253 83.878 11.0933 83.8994 11.072C83.942 10.944 83.9527 10.8373 83.9314 10.752C83.91 10.6667 83.878 10.5707 83.8354 10.464C83.814 10.3573 83.7927 10.208 83.7714 10.016C83.75 9.824 83.7607 9.54667 83.8034 9.184C83.8887 8.45867 83.9527 7.86133 83.9954 7.392C84.0594 6.90133 84.0914 6.592 84.0914 6.464V5.728C84.0487 5.536 84.0274 5.35467 84.0274 5.184C84.0487 4.992 83.9634 4.84267 83.7714 4.736L83.8034 4.32C83.8887 4.128 84.2194 4.032 84.7954 4.032H86.4914C86.6194 4.032 86.7794 3.968 86.9714 3.84C87.1847 3.712 87.4194 3.63733 87.6754 3.616C87.782 3.57333 87.91 3.52 88.0594 3.456C88.2087 3.37067 88.3154 3.328 88.3794 3.328C88.4647 3.328 88.5714 3.34933 88.6994 3.392C88.8487 3.43467 88.998 3.52 89.1474 3.648V4.32L90.8754 7.744L91.3874 10.432L92.4754 12.192L93.4994 14.432L93.9794 14.56L95.0354 13.6C95.078 13.4933 95.1207 13.376 95.1634 13.248C95.2274 13.12 95.302 13.0027 95.3874 12.896C95.5154 12.6827 95.6647 12.448 95.8354 12.192C96.0274 11.936 96.2514 11.6587 96.5074 11.36C97.5314 10.2507 97.9794 9.49333 97.8514 9.088L99.2274 6.848C99.59 6.99733 99.8887 6.96533 100.123 6.752C100.379 6.51733 100.561 5.99467 100.667 5.184C100.667 5.14133 100.657 5.07733 100.635 4.992C100.614 4.88533 100.582 4.78933 100.539 4.704C100.817 4.576 100.977 4.448 101.019 4.32C101.062 4.192 101.083 4 101.083 3.744C101.339 3.63733 101.563 3.57333 101.755 3.552C101.969 3.50933 102.193 3.456 102.427 3.392L104.603 4.704C104.582 4.896 104.561 5.09867 104.539 5.312C104.518 5.52533 104.486 5.74933 104.443 5.984C104.401 6.28267 104.358 6.60267 104.315 6.944C104.273 7.264 104.23 7.584 104.187 7.904C104.166 8.20267 104.134 8.48 104.091 8.736C104.07 8.992 104.049 9.19467 104.027 9.344C103.985 9.55733 103.942 9.93067 103.899 10.464C103.857 10.976 103.803 11.68 103.739 12.576C103.675 14.3467 103.899 15.3707 104.411 15.648C104.411 15.7973 104.401 16.128 104.379 16.64C104.379 17.152 104.369 17.888 104.347 18.848C104.326 19.3173 104.315 19.7333 104.315 20.096C104.315 20.4587 104.315 20.7787 104.315 21.056V22.048C103.739 22.1973 103.131 22.336 102.491 22.464C101.873 22.592 101.382 22.656 101.019 22.656C100.87 22.656 100.721 22.6027 100.571 22.496C100.422 22.3893 100.326 22.2187 100.283 21.984C100.433 21.856 100.507 21.792 100.507 21.792C100.529 21.792 100.486 21.7387 100.379 21.632V17.856L100.603 17.344H100.379V15.872C100.379 15.6373 100.369 15.3173 100.347 14.912C100.326 14.5067 100.294 13.9947 100.251 13.376C100.187 12.7573 100.145 12.288 100.123 11.968C100.102 11.6267 100.091 11.4347 100.091 11.392C100.091 11.328 100.145 11.1893 100.251 10.976C100.379 10.7413 100.497 10.5493 100.603 10.4C100.646 10.2933 100.657 10.1867 100.635 10.08C100.635 9.952 100.646 9.84533 100.667 9.76C100.667 9.67467 100.71 9.6 100.795 9.536C100.902 9.45067 100.977 9.38667 101.019 9.344C100.977 9.216 100.923 9.07733 100.859 8.928C100.817 8.77867 100.795 8.68267 100.795 8.64C99.7714 8.17067 99.462 8.52267 99.8674 9.696L99.1314 11.296L96.9234 14.56L94.9394 18.368L94.2994 18.656ZM123.253 12C123.317 12.3627 123.349 12.6827 123.349 12.96C123.349 13.216 123.338 13.472 123.317 13.728C123.317 13.9627 123.328 14.1973 123.349 14.432C123.392 14.6453 123.477 14.88 123.605 15.136C123.562 15.2213 123.456 15.392 123.285 15.648C123.136 15.8827 123.029 16.128 122.965 16.384C122.922 16.6187 122.89 16.8 122.869 16.928C122.848 17.056 122.826 17.1413 122.805 17.184C122.869 17.2267 122.922 17.312 122.965 17.44C122.986 17.5467 122.965 17.6853 122.901 17.856C122.837 18.0053 122.709 18.2187 122.517 18.496C122.133 19.008 121.92 19.4453 121.877 19.808C121.834 20.1493 121.749 20.416 121.621 20.608C121.578 20.6507 121.44 20.7147 121.205 20.8C120.992 20.8853 120.736 20.992 120.437 21.12C120.138 21.2267 119.84 21.3547 119.541 21.504C119.242 21.6533 119.008 21.8027 118.837 21.952C118.474 22.016 118.154 22.1013 117.877 22.208C117.6 22.3147 117.258 22.3893 116.853 22.432C116.469 22.5173 116.074 22.624 115.669 22.752C115.264 22.8587 115.04 22.912 114.997 22.912C113.994 22.912 113.397 22.944 113.205 23.008C113.034 23.072 112.832 23.104 112.597 23.104L109.685 22.048L108.341 20.096C108.341 19.584 108.32 19.1573 108.277 18.816C108.256 18.4533 108.224 18.144 108.181 17.888C108.138 17.6107 108.106 17.3547 108.085 17.12C108.064 16.8853 108.064 16.6187 108.085 16.32C108.149 16.256 108.245 16.1067 108.373 15.872C108.501 15.616 108.629 15.328 108.757 15.008C108.906 14.688 109.045 14.3573 109.173 14.016C109.322 13.6747 109.429 13.3867 109.493 13.152C109.664 12.6613 109.792 12.2347 109.877 11.872C109.962 11.488 110.026 11.1467 110.069 10.848C110.24 10.7413 110.378 10.624 110.485 10.496C110.592 10.368 110.698 10.2613 110.805 10.176C111.68 9.664 112.437 9.248 113.077 8.928C113.717 8.58667 114.314 8.37333 114.869 8.288L115.829 8.224C115.936 8.24533 116.032 8.26667 116.117 8.288C116.202 8.30933 116.288 8.33067 116.373 8.352C116.501 8.39467 116.618 8.42667 116.725 8.448C116.832 8.448 116.896 8.448 116.917 8.448L117.557 9.44C117.557 9.632 117.514 9.792 117.429 9.92C117.344 10.0267 117.429 10.1013 117.685 10.144C117.962 10.208 118.112 10.2507 118.133 10.272V10.304C118.474 10.304 118.826 10.2293 119.189 10.08C119.552 9.90933 119.914 9.824 120.277 9.824C120.362 9.824 120.512 9.86667 120.725 9.952C120.938 10.016 121.162 10.1013 121.397 10.208C121.632 10.3147 121.845 10.4213 122.037 10.528C122.25 10.6133 122.4 10.6773 122.485 10.72C122.442 11.04 122.453 11.264 122.517 11.392C122.581 11.52 122.666 11.616 122.773 11.68C122.88 11.7227 122.976 11.7653 123.061 11.808C123.168 11.8293 123.232 11.8933 123.253 12ZM117.525 20C117.845 19.7867 118.154 19.104 118.453 17.952C118.624 17.3333 118.762 16.8747 118.869 16.576C118.997 16.256 119.061 15.9573 119.061 15.68C119.061 15.2107 118.901 14.656 118.581 14.016C118.41 13.6747 118.282 13.3867 118.197 13.152C118.112 12.9173 118.048 12.6827 118.005 12.448C117.834 12.3627 117.738 12.2347 117.717 12.064C117.717 11.872 117.632 11.68 117.461 11.488C117.248 11.3173 117.12 11.2533 117.077 11.296C117.034 11.3387 116.992 11.36 116.949 11.36H116.661C116.49 11.36 116.256 11.392 115.957 11.456C115.68 11.52 115.456 11.6693 115.285 11.904C115.029 12.1813 114.805 12.4053 114.613 12.576C114.442 12.7253 114.346 12.8213 114.325 12.864C114.112 13.2693 113.92 13.6213 113.749 13.92C113.578 14.1973 113.44 14.4213 113.333 14.592L113.045 15.264C112.917 15.584 112.864 16.0107 112.885 16.544C112.928 16.6293 112.97 16.8213 113.013 17.12C113.056 17.3973 112.928 17.696 112.629 18.016C112.565 18.08 112.501 18.208 112.437 18.4C112.373 18.5707 112.33 18.7733 112.309 19.008C112.288 19.2427 112.309 19.4773 112.373 19.712C112.458 19.9467 112.618 20.1493 112.853 20.32C113.152 20.5333 113.461 20.7467 113.781 20.96C114.101 21.152 114.304 21.248 114.389 21.248H114.741C114.869 21.248 114.986 21.28 115.093 21.344L117.525 20ZM133.209 22.624C133.124 22.3893 132.91 22.0693 132.569 21.664C132.228 21.2373 131.961 20.7787 131.769 20.288C131.406 19.3067 131.14 18.6133 130.969 18.208C130.82 17.7813 130.681 17.5467 130.553 17.504C130.446 17.4613 130.308 17.344 130.137 17.152C129.966 16.96 129.774 16.8213 129.561 16.736C129.326 15.9893 129.049 15.2 128.729 14.368C128.409 13.5147 127.982 12.7253 127.449 12C127.214 11.68 127.044 11.4133 126.937 11.2C126.852 10.9653 126.777 10.7627 126.713 10.592C126.67 10.4213 126.617 10.2827 126.553 10.176C126.489 10.048 126.382 9.93067 126.233 9.824V8.64C126.446 8.512 126.724 8.448 127.065 8.448C127.214 8.448 127.31 8.384 127.353 8.256C127.417 8.10667 127.502 8 127.609 7.936C127.716 7.89333 127.897 7.82933 128.153 7.744C128.43 7.65867 128.59 7.56267 128.633 7.456L129.753 7.68C129.924 7.78667 130.052 7.82933 130.137 7.808C130.222 7.78667 130.318 7.81867 130.425 7.904C130.617 8.07467 130.82 8.224 131.033 8.352C131.246 8.48 131.492 8.59733 131.769 8.704C131.705 8.74667 131.769 9.056 131.961 9.632C132.174 10.1867 132.452 10.8693 132.793 11.68C133.134 12.4907 133.508 13.3653 133.913 14.304C134.34 15.2213 134.734 16.0533 135.097 16.8C135.481 17.5467 135.801 18.144 136.057 18.592C136.334 19.04 136.494 19.1893 136.537 19.04C136.622 19.0613 136.729 18.8907 136.857 18.528C136.985 18.1653 137.134 17.7387 137.305 17.248C137.454 16.7147 137.625 16.2667 137.817 15.904C138.009 15.5413 138.148 15.2747 138.233 15.104C138.51 14.9333 138.692 14.7627 138.777 14.592C138.884 14.4213 139.022 14.2187 139.193 13.984C139.321 13.8347 139.406 13.6747 139.449 13.504C139.513 13.312 139.556 13.2053 139.577 13.184C139.748 12.8427 139.972 12.448 140.249 12C140.548 11.552 140.708 11.04 140.729 10.464C140.772 10.08 140.846 9.74933 140.953 9.472C141.081 9.17333 141.166 8.93867 141.209 8.768L142.169 8.672L143.225 9.408C143.225 9.664 143.182 9.89867 143.097 10.112C143.012 10.304 142.98 10.4853 143.001 10.656C143.001 10.7413 142.958 10.8587 142.873 11.008C142.788 11.136 142.692 11.2747 142.585 11.424C142.5 11.5733 142.414 11.7227 142.329 11.872C142.265 12 142.233 12.096 142.233 12.16C142.212 12.3093 142.126 12.48 141.977 12.672C141.828 12.864 141.742 13.1093 141.721 13.408C141.721 14.0267 141.625 14.464 141.433 14.72C141.198 15.0613 140.9 15.5307 140.537 16.128C140.174 16.704 139.79 17.3867 139.385 18.176C138.98 18.9653 138.66 19.648 138.425 20.224C138.19 20.7787 138.052 21.12 138.009 21.248L137.753 21.696L137.049 22.816C136.686 23.0293 136.302 23.1573 135.897 23.2C135.492 23.2427 135.065 23.136 134.617 22.88L133.913 23.136L133.209 22.624ZM148.214 3.328C148.257 3.15733 148.278 2.99733 148.278 2.848C148.3 2.67733 148.321 2.50667 148.342 2.336C148.342 2.18667 148.342 2.05867 148.342 1.952C148.364 1.84533 148.374 1.74933 148.374 1.664L148.534 1.312C148.598 1.29067 148.684 1.28 148.79 1.28C148.897 1.28 149.025 1.26933 149.174 1.248C149.622 1.22667 149.91 1.17333 150.038 1.088C150.038 1.06667 150.092 1.024 150.198 0.959999C150.262 0.895999 150.316 0.853332 150.358 0.831999C150.38 0.831999 150.454 0.842665 150.582 0.863998C150.71 0.885331 150.881 0.927998 151.094 0.991999C151.457 1.07733 151.713 1.12 151.862 1.12C152.054 1.12 152.161 1.10933 152.182 1.088C152.204 1.06667 152.268 1.06667 152.374 1.088L152.662 1.632L152.95 3.264L152.278 4.384C152.257 4.40533 152.236 4.42667 152.214 4.448C152.214 4.46933 152.193 4.49067 152.15 4.512C152.044 4.576 151.916 4.672 151.766 4.8L151.67 4.896L150.71 4.992C150.582 4.94933 150.433 4.90667 150.262 4.864C150.092 4.8 149.889 4.72533 149.654 4.64C149.42 4.55467 149.217 4.48 149.046 4.416C148.876 4.33066 148.726 4.26667 148.598 4.224L148.438 4.064L148.214 3.328ZM152.182 8.832L152.054 9.984L152.182 10.464L151.99 10.976L152.086 11.712L151.926 12.32L152.022 12.512L151.894 13.952L151.766 16.992C151.766 17.1413 151.745 17.3333 151.702 17.568C151.66 17.7813 151.628 18.016 151.606 18.272C151.585 18.5067 151.585 18.752 151.606 19.008C151.628 19.2427 151.692 19.4453 151.798 19.616C151.777 19.936 151.745 20.3093 151.702 20.736C151.66 21.1627 151.585 21.6533 151.478 22.208C151.308 22.4427 151.126 22.656 150.934 22.848C150.764 23.0187 150.433 23.1147 149.942 23.136C149.665 23.1573 149.388 23.1787 149.11 23.2C148.854 23.2213 148.609 23.2533 148.374 23.296C148.246 23.3173 148.118 23.3387 147.99 23.36C147.862 23.3813 147.724 23.4133 147.574 23.456L146.774 22.432C146.796 22.3253 146.828 22.0373 146.87 21.568C146.934 21.0773 146.988 20.5013 147.03 19.84C147.073 19.1787 147.094 18.4747 147.094 17.728C147.116 16.9813 147.094 16.288 147.03 15.648L147.222 15.04L147.51 13.632L147.606 12.512L147.798 12.128L147.83 11.84L148.022 10.976L148.182 9.216L151.062 8.096L152.182 8.832ZM169.992 15.68C169.523 15.616 169.107 15.7013 168.744 15.936C168.616 16 168.488 16.064 168.36 16.128C168.232 16.1707 168.104 16.2133 167.976 16.256C167.912 16.2773 167.848 16.2987 167.784 16.32C167.72 16.3413 167.667 16.3627 167.624 16.384L163.176 17.728C161.939 17.4507 161.502 17.6533 161.864 18.336C161.928 18.4853 162.014 18.7093 162.12 19.008C162.227 19.3067 162.312 19.52 162.376 19.648C162.654 19.7547 162.942 19.9253 163.24 20.16C163.539 20.3733 163.816 20.5013 164.072 20.544L164.648 20.48C164.798 20.48 165 20.4693 165.256 20.448C165.534 20.4267 165.8 20.3947 166.056 20.352C166.334 20.288 166.579 20.2133 166.792 20.128C167.027 20.0427 167.187 19.936 167.272 19.808C167.336 19.7013 167.432 19.6267 167.56 19.584C167.688 19.52 167.816 19.4667 167.944 19.424C168.03 19.4027 168.104 19.392 168.168 19.392C168.254 19.3707 168.35 19.3493 168.456 19.328L168.808 20.576L168.424 21.312C168.403 21.3547 168.328 21.408 168.2 21.472C168.094 21.5147 167.966 21.5787 167.816 21.664C167.667 21.7493 167.518 21.8347 167.368 21.92C167.24 21.984 167.144 22.048 167.08 22.112C167.038 22.1547 166.92 22.176 166.728 22.176C166.558 22.176 166.355 22.176 166.12 22.176C165.907 22.176 165.683 22.1867 165.448 22.208C165.214 22.2293 165.032 22.272 164.904 22.336C164.606 22.4853 164.371 22.5813 164.2 22.624C164.051 22.6667 163.923 22.6987 163.816 22.72C163.71 22.7627 163.635 22.752 163.592 22.688C163.55 22.6667 163.475 22.656 163.368 22.656C163.304 22.656 163.219 22.656 163.112 22.656C163.006 22.656 162.899 22.6453 162.792 22.624C162.515 22.6027 162.291 22.592 162.12 22.592C161.95 22.5707 161.843 22.56 161.8 22.56L158.728 21.056C158.664 20.416 158.366 20.096 157.832 20.096C157.726 20.096 157.598 20.0107 157.448 19.84C157.299 19.648 157.171 19.4453 157.064 19.232C156.979 19.1253 156.904 19.008 156.84 18.88C156.776 18.7307 156.712 18.5707 156.648 18.4L156.36 14.752L156.648 12.608C156.67 12.5227 156.734 12.416 156.84 12.288C156.968 12.0747 157.128 11.7547 157.32 11.328C157.406 11.136 157.576 10.9547 157.832 10.784C158.088 10.6133 158.355 10.464 158.632 10.336C158.931 10.1867 159.208 10.0587 159.464 9.952C159.742 9.824 159.944 9.71733 160.072 9.632C160.328 9.67467 160.702 9.39733 161.192 8.8C161.32 8.65067 161.48 8.53333 161.672 8.448C161.864 8.34133 162.056 8.256 162.248 8.192C162.355 8.14933 162.472 8.11733 162.6 8.096C162.728 8.07467 162.846 8.05333 162.952 8.032L166.696 8.512C166.91 8.55467 167.134 8.61867 167.368 8.704C167.539 8.78933 167.71 8.896 167.88 9.024C168.051 9.152 168.19 9.30133 168.296 9.472C168.446 9.83467 168.659 10.1333 168.936 10.368C169.214 10.5813 169.438 10.7307 169.608 10.816L170.792 12.928L170.536 15.008L169.992 15.68ZM165.256 14.592L165.512 14.4C165.576 14.3573 165.64 14.3147 165.704 14.272C165.768 14.208 165.822 14.1653 165.864 14.144C166.014 14.1013 166.184 14.016 166.376 13.888C166.568 13.76 166.643 13.6 166.6 13.408C166.6 13.0453 166.408 12.64 166.024 12.192C165.64 11.744 165.139 11.424 164.52 11.232C164.222 11.1253 163.934 11.072 163.656 11.072C163.379 11.072 163.112 11.0933 162.856 11.136C162.622 11.1573 162.398 11.1893 162.184 11.232C161.992 11.2747 161.832 11.296 161.704 11.296C161.214 11.1893 160.936 11.4133 160.872 11.968C160.552 12.4587 160.392 13.0027 160.392 13.6C160.414 14.176 160.478 14.7307 160.584 15.264C160.584 15.5627 160.638 15.808 160.744 16C160.872 16.192 161.022 16.3093 161.192 16.352C161.363 16.3947 161.534 16.3627 161.704 16.256C161.896 16.128 162.056 15.904 162.184 15.584L165.256 14.592ZM173.091 10.848L174.467 8.64C174.552 8.64 174.638 8.64 174.723 8.64C174.808 8.61867 174.904 8.59733 175.011 8.576C175.182 8.55467 175.406 8.52267 175.683 8.48C175.96 8.43733 176.28 8.39467 176.643 8.352C178.094 8.18133 178.627 7.82933 178.243 7.296L182.819 6.624H184.003L184.227 6.88L184.355 7.936L183.811 8.352L182.211 8.384L180.131 9.408L177.827 10.144L177.443 11.008L178.179 12.8L179.075 12.928L179.491 13.856L180.259 13.792L180.707 14.336C180.899 14.272 181.091 14.2293 181.283 14.208C181.475 14.1653 181.646 14.1653 181.795 14.208C181.902 14.2293 182.019 14.2507 182.147 14.272C182.275 14.272 182.424 14.2933 182.595 14.336C182.808 14.4 182.958 14.4747 183.043 14.56C183.128 14.624 183.203 14.688 183.267 14.752C183.331 14.7947 183.406 14.8373 183.491 14.88C183.576 14.9227 183.726 14.944 183.939 14.944C184.003 15.072 184.12 15.2 184.291 15.328C184.483 15.456 184.686 15.584 184.899 15.712C185.134 15.84 185.358 15.968 185.571 16.096C185.806 16.224 185.976 16.352 186.083 16.48C186.126 16.5227 186.147 16.5547 186.147 16.576C186.168 16.5973 186.2 16.6293 186.243 16.672L186.435 18.208L185.731 20.128L185.539 21.472L183.971 22.272L181.379 23.296L179.811 23.072C179.256 22.9867 178.766 22.9867 178.339 23.072C177.912 23.1573 177.518 23.2 177.155 23.2H173.635L173.251 22.24L173.507 21.312L178.147 20.832L179.683 20.64L181.603 18.592L181.315 17.664L179.907 17.408L177.443 16.736L177.027 16.96L175.683 16.352L174.819 15.776L173.827 13.6L173.091 12.16V10.848Z" fill="#5C2786"/>
</svg>
